<mxfile host="app.diagrams.net" modified="2024-07-29T13:16:43.858Z" agent="Mozilla/5.0 (X11; Linux x86_64) AppleWebKit/537.36 (KHTML, like Gecko) Chrome/126.0.0.0 Safari/537.36" version="24.4.13" etag="AtzbqACMQk9CBNNjaE8U" type="github">
  <diagram name="Page-1" id="2mMIiaMd0MNjVBFJbMuj">
    <mxGraphModel>
      <root>
        <mxCell id="0" />
        <mxCell id="1" parent="0" />
      </root>
    </mxGraphModel>
  </diagram>
</mxfile>
